<svg width="38" height="38" viewBox="0 0 38 38" fill="none" xmlns="http://www.w3.org/2000/svg">
<path d="M19 0.625C8.85273 0.625 0.625 8.85273 0.625 19C0.625 29.1473 8.85273 37.375 19 37.375C29.1473 37.375 37.375 29.1473 37.375 19C37.375 8.85273 29.1473 0.625 19 0.625ZM25.8496 26.6125C24.1844 28.1465 21.9121 29.0488 19.201 29.0488C15.2758 29.0488 11.8797 26.7971 10.2268 23.5158C9.5459 22.1582 9.15625 20.6242 9.15625 19C9.15625 17.3758 9.5459 15.8418 10.2268 14.4842C11.8797 11.1988 15.2758 8.94707 19.201 8.94707C21.908 8.94707 24.1803 9.94375 25.9234 11.5639L23.0441 14.4473C22.0023 13.4506 20.6775 12.9461 19.2051 12.9461C16.5883 12.9461 14.3734 14.7139 13.5818 17.0887C13.3809 17.6916 13.266 18.3355 13.266 19C13.266 19.6645 13.3809 20.3084 13.5818 20.9113C14.3734 23.2861 16.5883 25.0539 19.201 25.0539C20.5545 25.0539 21.7029 24.6971 22.6012 24.0941C23.6676 23.3805 24.373 22.3182 24.6068 21.059H19.201V17.1707H28.6633C28.7822 17.8311 28.8438 18.516 28.8438 19.2256C28.8438 22.2895 27.7486 24.8611 25.8496 26.6125Z" fill="white"/>
</svg>
