<svg width="487" height="52" viewBox="0 0 487 52" fill="none" xmlns="http://www.w3.org/2000/svg">
<path d="M0 46.1734L8.09385 37.3937C10.9126 40.4666 16.2682 42.6216 22.389 42.6216C29.3553 42.6216 33.2613 40.307 34.7109 37.2341C39.1404 27.8158 6.60394 34.2809 15.3823 15.604C19.4091 7.10361 29.7177 0 44.1336 0C50.4959 0 56.3348 1.5165 59.6368 4.46969L51.8651 13.2893C48.402 10.6155 44.1739 9.33845 39.6639 9.33845C32.6975 9.33845 28.7915 11.9325 27.3016 15.0852C22.9527 24.3438 55.4489 17.9586 46.7913 36.4359C42.845 44.8565 32.4157 52.0399 17.9192 52.0399C9.86564 52 2.85902 49.6454 0 46.1734Z" fill="#353C64"/>
<path d="M57.865 29.0129L71.1131 0.837891H82.8713L69.8245 28.5739C65.3145 38.1119 67.6903 42.0628 74.7775 42.0628C81.9452 42.0628 87.9451 38.1119 92.4551 28.5739L105.502 0.837891H117.099L103.851 29.0129C96.8845 43.8187 84.482 51.9998 70.0661 51.9998C55.61 51.9998 50.8986 43.8187 57.865 29.0129Z" fill="#353C64"/>
<path d="M137.353 51.1619L134.172 37.1542H133.608H123.38L116.776 51.1619H105.018L128.696 0.87793H150.642C164.212 0.87793 169.406 7.86181 164.091 19.1158C160.548 26.6584 154.105 32.2056 146.172 34.9992L149.957 51.1619H137.353ZM145.528 10.3361H135.944L127.689 27.8557H137.273C144.44 27.8557 149.635 24.5433 152.212 19.0759C154.789 13.5686 152.695 10.3361 145.528 10.3361Z" fill="#353C64"/>
<path d="M230.735 0.87793L185.111 51.1619H173.514L175.286 0.87793H187.97L186.521 36.795L219.057 0.87793H230.735Z" fill="#353C64"/>
<path d="M254.936 41.8234L250.547 51.1619H211.245L234.923 0.87793H273.258L268.869 10.2164H242.211L237.057 21.1511H260.614L256.345 30.2102H232.788L227.312 41.8633H254.936V41.8234Z" fill="#353C64"/>
<path d="M292.144 33.3229L283.768 51.1219H272.01L280.466 33.1633L276.037 0.837891H288.52L291.58 23.1863L315.66 0.837891H327.177L292.144 33.3229Z" fill="#353C64"/>
<path d="M356.532 40.3867H332.976L323.432 51.1619H311.392L357.66 0.87793H369.257L368.291 51.1619H355.969L356.532 40.3867ZM356.975 31.5272L357.982 12.2916L340.868 31.5272H356.975Z" fill="url(#paint0_linear)"/>
<path d="M432.638 19.1157C427.363 30.3298 415.604 37.2738 402.034 37.2738H391.806L385.283 51.1219H373.524L397.202 0.837891H419.148C432.718 0.877799 437.913 7.82178 432.638 19.1157ZM420.718 19.1157C423.336 13.5685 421.202 10.336 414.034 10.336H404.45L396.236 27.7757H405.819C413.027 27.8156 418.182 24.5831 420.718 19.1157Z" fill="url(#paint1_linear)"/>
<path d="M484.946 19.1157C479.671 30.3298 467.913 37.2738 454.342 37.2738H444.155L437.631 51.1219H425.873L449.551 0.837891H471.497C485.067 0.877799 490.261 7.82178 484.946 19.1157ZM473.067 19.1157C475.684 13.5685 473.55 10.336 466.383 10.336H456.799L448.584 27.7757H458.168C465.376 27.8156 470.49 24.5831 473.067 19.1157Z" fill="url(#paint2_linear)"/>
<defs>
<linearGradient id="paint0_linear" x1="266.99" y1="38.5315" x2="535.896" y2="2.78721" gradientUnits="userSpaceOnUse">
<stop stop-color="#00AA8B"/>
<stop offset="1" stop-color="#006CBF"/>
</linearGradient>
<linearGradient id="paint1_linear" x1="267.472" y1="42.1638" x2="536.378" y2="6.41933" gradientUnits="userSpaceOnUse">
<stop stop-color="#00AA8B"/>
<stop offset="1" stop-color="#006CBF"/>
</linearGradient>
<linearGradient id="paint2_linear" x1="268.365" y1="48.8797" x2="537.271" y2="13.1353" gradientUnits="userSpaceOnUse">
<stop stop-color="#00AA8B"/>
<stop offset="1" stop-color="#006CBF"/>
</linearGradient>
</defs>
</svg>
