<svg width="573" height="141" viewBox="0 0 573 141" fill="none" xmlns="http://www.w3.org/2000/svg">
<path d="M147.866 0.619997L134.396 44H127.106L117.626 14.36C117.366 13.64 117.126 12.76 116.906 11.72C116.786 12.22 116.666 12.69 116.546 13.13C116.426 13.57 116.296 13.98 116.156 14.36L106.586 44H99.2664L85.8264 0.619997H92.5764C93.2764 0.619997 93.8564 0.789998 94.3164 1.13C94.7964 1.45 95.1164 1.89 95.2764 2.45L102.656 28.4C102.816 29.04 102.966 29.74 103.106 30.5C103.266 31.24 103.426 32.02 103.586 32.84C103.746 32 103.916 31.21 104.096 30.47C104.296 29.73 104.506 29.04 104.726 28.4L113.246 2.45C113.406 1.99 113.716 1.57 114.176 1.19C114.656 0.809998 115.236 0.619997 115.916 0.619997H118.286C118.986 0.619997 119.556 0.789998 119.996 1.13C120.436 1.47 120.766 1.91 120.986 2.45L129.476 28.4C129.896 29.64 130.276 31.07 130.616 32.69C130.876 31.11 131.166 29.68 131.486 28.4L138.866 2.45C138.986 1.95 139.286 1.52 139.766 1.16C140.266 0.799997 140.856 0.619997 141.536 0.619997H147.866ZM161.293 7.04V19.07H176.473V25.28H161.293V37.55H180.553V44H153.193V0.619997H180.553V7.04H161.293ZM213.115 37.34V44H187.705V0.619997H195.775V37.34H213.115ZM247.143 33.77C247.583 33.77 247.973 33.94 248.313 34.28L251.493 37.73C249.733 39.91 247.563 41.58 244.983 42.74C242.423 43.9 239.343 44.48 235.743 44.48C232.523 44.48 229.623 43.93 227.043 42.83C224.483 41.73 222.293 40.2 220.473 38.24C218.653 36.28 217.253 33.94 216.273 31.22C215.313 28.5 214.833 25.53 214.833 22.31C214.833 19.05 215.353 16.07 216.393 13.37C217.433 10.65 218.893 8.31 220.773 6.35C222.673 4.39 224.933 2.87 227.553 1.79C230.173 0.689999 233.073 0.14 236.253 0.14C239.413 0.14 242.213 0.659999 244.653 1.7C247.113 2.74 249.203 4.1 250.923 5.78L248.223 9.53C248.063 9.77 247.853 9.98 247.593 10.16C247.353 10.34 247.013 10.43 246.573 10.43C246.273 10.43 245.963 10.35 245.643 10.19C245.323 10.01 244.973 9.8 244.593 9.56C244.213 9.3 243.773 9.02 243.273 8.72C242.773 8.42 242.193 8.15 241.533 7.91C240.873 7.65 240.103 7.44 239.223 7.28C238.363 7.1 237.363 7.01 236.223 7.01C234.283 7.01 232.503 7.36 230.883 8.06C229.283 8.74 227.903 9.74 226.743 11.06C225.583 12.36 224.683 13.96 224.043 15.86C223.403 17.74 223.083 19.89 223.083 22.31C223.083 24.75 223.423 26.92 224.103 28.82C224.803 30.72 225.743 32.32 226.923 33.62C228.103 34.92 229.493 35.92 231.093 36.62C232.693 37.3 234.413 37.64 236.253 37.64C237.353 37.64 238.343 37.58 239.223 37.46C240.123 37.34 240.943 37.15 241.683 36.89C242.443 36.63 243.153 36.3 243.813 35.9C244.493 35.48 245.163 34.97 245.823 34.37C246.023 34.19 246.233 34.05 246.453 33.95C246.673 33.83 246.903 33.77 247.143 33.77ZM297.454 22.31C297.454 25.49 296.924 28.44 295.864 31.16C294.824 33.86 293.344 36.2 291.424 38.18C289.504 40.16 287.194 41.71 284.494 42.83C281.794 43.93 278.794 44.48 275.494 44.48C272.214 44.48 269.224 43.93 266.524 42.83C263.824 41.71 261.504 40.16 259.564 38.18C257.644 36.2 256.154 33.86 255.094 31.16C254.034 28.44 253.504 25.49 253.504 22.31C253.504 19.13 254.034 16.19 255.094 13.49C256.154 10.77 257.644 8.42 259.564 6.44C261.504 4.46 263.824 2.92 266.524 1.82C269.224 0.7 272.214 0.14 275.494 0.14C277.694 0.14 279.764 0.399999 281.704 0.919997C283.644 1.42 285.424 2.14 287.044 3.08C288.664 4 290.114 5.13 291.394 6.47C292.694 7.79 293.794 9.27 294.694 10.91C295.594 12.55 296.274 14.33 296.734 16.25C297.214 18.17 297.454 20.19 297.454 22.31ZM289.204 22.31C289.204 19.93 288.884 17.8 288.244 15.92C287.604 14.02 286.694 12.41 285.514 11.09C284.334 9.77 282.894 8.76 281.194 8.06C279.514 7.36 277.614 7.01 275.494 7.01C273.374 7.01 271.464 7.36 269.764 8.06C268.084 8.76 266.644 9.77 265.444 11.09C264.264 12.41 263.354 14.02 262.714 15.92C262.074 17.8 261.754 19.93 261.754 22.31C261.754 24.69 262.074 26.83 262.714 28.73C263.354 30.61 264.264 32.21 265.444 33.53C266.644 34.83 268.084 35.83 269.764 36.53C271.464 37.23 273.374 37.58 275.494 37.58C277.614 37.58 279.514 37.23 281.194 36.53C282.894 35.83 284.334 34.83 285.514 33.53C286.694 32.21 287.604 30.61 288.244 28.73C288.884 26.83 289.204 24.69 289.204 22.31ZM351.581 0.619997V44H344.471V15.98C344.471 14.86 344.531 13.65 344.651 12.35L331.541 36.98C330.921 38.16 329.971 38.75 328.691 38.75H327.551C326.271 38.75 325.321 38.16 324.701 36.98L311.441 12.26C311.501 12.92 311.551 13.57 311.591 14.21C311.631 14.85 311.651 15.44 311.651 15.98V44H304.541V0.619997H310.631C310.991 0.619997 311.301 0.629997 311.561 0.649998C311.821 0.669997 312.051 0.719997 312.251 0.799998C312.471 0.879997 312.661 1.01 312.821 1.19C313.001 1.37 313.171 1.61 313.331 1.91L326.321 26C326.661 26.64 326.971 27.3 327.251 27.98C327.551 28.66 327.841 29.36 328.121 30.08C328.401 29.34 328.691 28.63 328.991 27.95C329.291 27.25 329.611 26.58 329.951 25.94L342.761 1.91C342.921 1.61 343.091 1.37 343.271 1.19C343.451 1.01 343.641 0.879997 343.841 0.799998C344.061 0.719997 344.301 0.669997 344.561 0.649998C344.821 0.629997 345.131 0.619997 345.491 0.619997H351.581ZM369.36 7.04V19.07H384.54V25.28H369.36V37.55H388.62V44H361.26V0.619997H388.62V7.04H369.36ZM438.845 7.25H425.765V44H417.695V7.25H404.615V0.619997H438.845V7.25ZM484.427 22.31C484.427 25.49 483.897 28.44 482.837 31.16C481.797 33.86 480.317 36.2 478.397 38.18C476.477 40.16 474.167 41.71 471.467 42.83C468.767 43.93 465.767 44.48 462.467 44.48C459.187 44.48 456.197 43.93 453.497 42.83C450.797 41.71 448.477 40.16 446.537 38.18C444.617 36.2 443.127 33.86 442.067 31.16C441.007 28.44 440.477 25.49 440.477 22.31C440.477 19.13 441.007 16.19 442.067 13.49C443.127 10.77 444.617 8.42 446.537 6.44C448.477 4.46 450.797 2.92 453.497 1.82C456.197 0.7 459.187 0.14 462.467 0.14C464.667 0.14 466.737 0.399999 468.677 0.919997C470.617 1.42 472.397 2.14 474.017 3.08C475.637 4 477.087 5.13 478.367 6.47C479.667 7.79 480.767 9.27 481.667 10.91C482.567 12.55 483.247 14.33 483.707 16.25C484.187 18.17 484.427 20.19 484.427 22.31ZM476.177 22.31C476.177 19.93 475.857 17.8 475.217 15.92C474.577 14.02 473.667 12.41 472.487 11.09C471.307 9.77 469.867 8.76 468.167 8.06C466.487 7.36 464.587 7.01 462.467 7.01C460.347 7.01 458.437 7.36 456.737 8.06C455.057 8.76 453.617 9.77 452.417 11.09C451.237 12.41 450.327 14.02 449.687 15.92C449.047 17.8 448.727 19.93 448.727 22.31C448.727 24.69 449.047 26.83 449.687 28.73C450.327 30.61 451.237 32.21 452.417 33.53C453.617 34.83 455.057 35.83 456.737 36.53C458.437 37.23 460.347 37.58 462.467 37.58C464.587 37.58 466.487 37.23 468.167 36.53C469.867 35.83 471.307 34.83 472.487 33.53C473.667 32.21 474.577 30.61 475.217 28.73C475.857 26.83 476.177 24.69 476.177 22.31Z" fill="white"/>
<path d="M0 134.277L9.52315 124.147C12.8397 127.692 19.1411 130.179 26.3426 130.179C34.5392 130.179 39.1349 127.508 40.8406 123.962C46.0523 113.095 7.77013 120.555 18.0987 99.0046C22.8366 89.1965 34.9656 81 51.9272 81C59.4131 81 66.283 82.7498 70.1681 86.1573L61.024 96.3338C56.9494 93.2487 51.9746 91.7751 46.6682 91.7751C38.4716 91.7751 33.8759 94.7682 32.1229 98.406C27.006 109.089 65.2407 101.721 55.0542 123.041C50.4111 132.757 38.14 141.046 21.0836 141.046C11.6078 141 3.3639 138.283 0 134.277Z" fill="white"/>
<path d="M68.084 114.476L83.6716 81.9668H97.5062L82.1555 113.97C76.849 124.975 79.6444 129.534 87.9831 129.534C96.4165 129.534 103.476 124.975 108.782 113.97L124.133 81.9668H137.778L122.191 114.476C113.994 131.56 99.4014 141 82.4398 141C65.4307 141 59.8874 131.56 68.084 114.476Z" fill="white"/>
<path d="M161.609 140.033L157.866 123.871H157.203H145.169L137.399 140.033H123.564L151.423 82.0133H177.244C193.211 82.0133 199.323 90.0716 193.069 103.057C188.899 111.76 181.319 118.161 171.985 121.384L176.439 140.033H161.609ZM171.227 92.9266H159.951L150.238 113.141H161.514C169.948 113.141 176.06 109.32 179.092 103.011C182.124 96.6564 179.661 92.9266 171.227 92.9266Z" fill="white"/>
<path d="M271.481 82.0133L217.8 140.033H204.155L206.24 82.0133H221.164L219.459 123.456L257.741 82.0133H271.481Z" fill="white"/>
<path d="M299.955 129.258L294.791 140.033H248.549L276.408 82.0133H321.513L316.349 92.7884H284.984L278.919 105.405H306.636L301.614 115.858H273.897L267.454 129.304H299.955V129.258Z" fill="white"/>
<path d="M343.733 119.45L333.878 139.987H320.043L329.993 119.265L324.781 81.9668H339.469L343.07 107.753L371.402 81.9668H384.953L343.733 119.45Z" fill="white"/>
<path d="M419.493 127.6H391.776L380.548 140.033H366.381L420.82 82.0133H434.465L433.328 140.033H418.83L419.493 127.6ZM420.014 117.378L421.199 95.1829L401.063 117.378H420.014Z" fill="url(#paint0_linear)"/>
<path d="M509.039 103.057C502.832 115.996 488.997 124.008 473.031 124.008H460.996L453.321 139.987H439.486L467.345 81.9668H493.167C509.133 82.0128 515.245 90.0251 509.039 103.057ZM495.014 103.057C498.094 96.656 495.583 92.9261 487.15 92.9261H475.873L466.208 113.049H477.484C485.965 113.095 492.03 109.365 495.014 103.057Z" fill="url(#paint1_linear)"/>
<path d="M570.583 103.057C564.376 115.996 550.542 124.008 534.575 124.008H522.588L514.913 139.987H501.078L528.937 81.9668H554.758C570.725 82.0128 576.837 90.0251 570.583 103.057ZM556.606 103.057C559.686 96.656 557.175 92.9261 548.741 92.9261H537.465L527.8 113.049H539.076C547.557 113.095 553.574 109.365 556.606 103.057Z" fill="url(#paint2_linear)"/>
<defs>
<linearGradient id="paint0_linear" x1="314.138" y1="125.46" x2="630.312" y2="82.6039" gradientUnits="userSpaceOnUse">
<stop stop-color="#00AA8B"/>
<stop offset="1" stop-color="#006CBF"/>
</linearGradient>
<linearGradient id="paint1_linear" x1="314.705" y1="129.651" x2="630.88" y2="86.7945" gradientUnits="userSpaceOnUse">
<stop stop-color="#00AA8B"/>
<stop offset="1" stop-color="#006CBF"/>
</linearGradient>
<linearGradient id="paint2_linear" x1="315.755" y1="137.4" x2="631.93" y2="94.5438" gradientUnits="userSpaceOnUse">
<stop stop-color="#00AA8B"/>
<stop offset="1" stop-color="#006CBF"/>
</linearGradient>
</defs>
</svg>
