<svg width="82" height="78" viewBox="0 0 82 78" fill="none" xmlns="http://www.w3.org/2000/svg">
<path d="M19.9984 10.8645C22.243 10.8645 24.4491 11.2557 26.5719 12.0381C27.2365 12.2813 27.8045 12.7333 28.1907 13.3264C28.5768 13.9195 28.7604 14.6218 28.7139 15.3281C28.6882 15.6808 28.0982 23.9987 24.9622 32.3807C21.8261 40.7755 17.3305 46.6564 17.1381 46.9065C16.7147 47.4583 16.1261 47.8603 15.4581 48.0541C14.7902 48.2479 14.0778 48.2233 13.4249 47.9839C3.51651 44.3541 -1.59479 33.3427 2.02865 23.4343C4.7799 15.9181 12.0011 10.8645 19.9984 10.8645Z" fill="#FCC21B"/>
<path d="M44.4326 9.74697e-06C47.0171 9.74697e-06 49.5439 0.519477 51.936 1.53917C56.6369 3.54008 60.2732 7.25972 62.1843 12.0055C64.089 16.7512 64.0313 21.9459 62.0239 26.6467C61.5109 27.8652 60.3116 28.6348 59.0162 28.6348C58.9071 28.6348 58.8045 28.6284 58.7019 28.622C58.3877 28.5899 51.0254 27.846 42.7524 24.3829C34.4986 20.9326 28.0277 15.6674 27.7584 15.4429C27.2105 14.9938 26.8236 14.3787 26.6558 13.6904C26.4881 13.0021 26.5487 12.2779 26.8285 11.6271C28.2976 8.1751 30.7503 5.23188 33.8808 3.16429C37.0112 1.09671 40.681 -0.00377841 44.4326 9.74697e-06Z" fill="#FCC21B"/>
<path d="M32.5936 29.9627C32.6577 29.6484 32.8758 29.3919 33.1579 29.2701L35.5629 28.2247C35.9028 28.0772 36.294 28.1349 36.5762 28.3594C36.8648 28.5967 36.993 28.9686 36.9161 29.3278C36.9161 29.3406 36.6146 30.9118 37.4932 32.2265C38.1282 33.1693 39.244 33.7849 40.8153 34.0607C44.9967 34.7982 45.4648 37.511 45.7983 39.4862C46.119 41.3589 46.3434 42.199 48.2417 42.3786C50.3517 42.5774 51.9036 43.3662 52.8592 44.7258C54.392 46.8934 53.7186 49.6703 53.6929 49.7858C53.6224 50.0808 53.4107 50.3245 53.1286 50.4463L50.7236 51.4917C50.5954 51.5494 50.4607 51.5751 50.3324 51.5751C50.1838 51.5753 50.037 51.5419 49.9032 51.4771C49.7694 51.4124 49.652 51.3181 49.56 51.2013C49.4679 51.0846 49.4036 50.9485 49.3719 50.8032C49.3402 50.658 49.3419 50.5075 49.3769 50.363C49.3769 50.3437 49.8514 48.3236 48.8381 46.8999C48.2225 46.0405 47.1515 45.5274 45.6444 45.3864C42.162 45.0529 41.7516 42.6351 41.4502 40.8715C41.1295 39.0117 40.8858 37.543 38.064 37.0492C35.9477 36.6773 34.3957 35.7794 33.4529 34.3749C32.1062 32.3484 32.5679 30.0589 32.5936 29.9627Z" fill="#ED6C30"/>
<path d="M24.9633 57.8919C26.4383 56.6798 26.1561 55.8653 25.3801 54.1273C24.5528 52.2996 23.4241 49.7856 26.4896 46.842C27.6312 45.7453 28.2148 44.6102 28.2212 43.4815C28.234 41.8846 27.0925 40.7431 27.086 40.7302C26.8231 40.4737 26.7269 40.0953 26.8295 39.7426C26.9385 39.3899 27.2271 39.1269 27.5927 39.0628L30.1708 38.5882C30.4786 38.5305 30.7993 38.6267 31.0301 38.8448C31.0943 38.9153 32.7681 40.5571 32.7617 42.9877C32.7617 44.6743 31.9665 46.284 30.4273 47.7783C28.3623 49.76 28.9715 51.1196 29.7475 52.8447C30.4786 54.4801 31.4855 56.7119 28.7855 58.9308C27.6119 59.8928 27.0027 60.9125 26.977 61.9707C26.9257 63.7214 28.4456 65.1323 28.4585 65.1388C28.7406 65.3889 28.8433 65.7801 28.7471 66.1328C28.6444 66.4983 28.3494 66.7677 27.9775 66.8318L25.3994 67.3064C25.3417 67.3192 25.2839 67.3256 25.2262 67.3256C24.9889 67.3256 24.7516 67.2359 24.5657 67.0755C24.4759 66.9922 22.366 65.0682 22.4301 62.4132C22.4814 60.7586 23.3279 59.2386 24.9633 57.8919Z" fill="#D7598B"/>
<path d="M38.9818 57.5072C37.5581 55.0381 38.3405 52.8448 38.3726 52.7486C38.4688 52.4921 38.6676 52.2805 38.9305 52.1843L41.2264 51.2608C41.5791 51.1197 41.9896 51.1966 42.2654 51.466C42.5411 51.7289 42.6437 52.1394 42.5155 52.5049C42.4962 52.5626 42.0281 53.9671 42.9772 55.6025C43.4133 56.3464 43.9648 56.6222 44.6703 56.9685C45.4719 57.3597 46.4724 57.8471 47.0752 59.1426C47.6396 60.3482 47.4921 61.5154 47.3702 62.548C47.2548 63.4907 47.1586 64.2987 47.5434 65.1004C47.9474 65.9598 48.64 66.3894 49.4417 66.8897C50.2369 67.3835 51.1348 67.9414 51.7825 68.9739C52.334 69.8526 52.3982 70.853 52.4623 71.8278C52.5713 73.4119 52.6996 74.4187 54.0784 75.1242C54.4183 75.2973 54.63 75.6565 54.6171 76.0413C54.5979 76.4261 54.3606 76.766 54.0015 76.907L51.7055 77.8305C51.5901 77.8818 51.4618 77.9011 51.34 77.9011C51.1861 77.9011 51.0386 77.8626 50.8975 77.7921C48.4605 76.5543 48.313 74.4316 48.2168 72.8796C48.1655 72.1164 48.1206 71.3981 47.8256 70.9428C47.4215 70.2887 46.8059 69.9167 46.1068 69.4742C45.1769 68.8906 44.1316 68.2428 43.4774 66.864C42.849 65.5429 42.9965 64.3116 43.1375 63.2277C43.2466 62.3491 43.3364 61.586 43.0093 60.8934C42.7143 60.252 42.2974 60.0276 41.5214 59.6492C40.707 59.2516 39.7065 58.7706 38.9818 57.5072Z" fill="#D7598B"/>
<path d="M67.0205 46.5085C65.9302 46.4701 64.6925 46.4187 63.4419 45.5466C62.2426 44.7064 61.7681 43.5713 61.3384 42.558C60.9921 41.7371 60.6971 41.0317 60.0686 40.5892C59.4273 40.1403 58.8308 40.2044 58.1639 40.2493C57.9009 40.2685 57.6316 40.2813 57.3686 40.2813C56.785 40.2813 55.9 40.2172 54.906 39.64C52.4433 38.2099 52.0393 35.9076 52.02 35.8114C51.9752 35.542 52.0521 35.2598 52.2189 35.0418L53.758 33.0986C53.9953 32.7972 54.3993 32.6625 54.7713 32.7587C55.1433 32.8549 55.4254 33.1627 55.4896 33.5475C55.496 33.5603 55.7782 35.0418 57.4263 35.9973C57.8817 36.2667 58.3114 36.3757 58.9014 36.3757C59.1258 36.3757 59.3503 36.3629 59.5748 36.3501C59.8313 36.3308 60.0814 36.318 60.3379 36.318C60.9792 36.318 61.8258 36.4014 62.7365 37.0491C63.8267 37.8187 64.2756 38.9025 64.6796 39.8645C65.0452 40.7367 65.3659 41.487 66.097 42.0001C66.873 42.5388 67.6874 42.5708 68.6302 42.6093C69.5601 42.6478 70.6182 42.6863 71.6957 43.2635C72.6063 43.7573 73.1643 44.591 73.6966 45.3991C74.5431 46.6817 75.1331 47.4641 76.544 47.4641L76.7364 47.4577C77.1084 47.4384 77.4803 47.6437 77.6599 47.99C77.8331 48.3299 77.7946 48.7467 77.5509 49.0481L76.0117 50.9913C75.8322 51.2094 75.5692 51.3441 75.2934 51.3569C75.1972 51.3633 75.101 51.3697 75.0049 51.3697C72.4716 51.3697 71.3429 49.6702 70.522 48.4261C70.1052 47.7912 69.7012 47.1883 69.2266 46.9318C68.566 46.5662 67.8478 46.5406 67.0205 46.5085Z" fill="#D7598B"/>
<path d="M57.8052 54.4674V51.4468C57.8052 50.9017 58.2477 50.4656 58.7864 50.4656H61.8135C62.3522 50.4656 62.7947 50.9017 62.7947 51.4468V54.4674C62.7947 55.0125 62.3586 55.4486 61.8135 55.4486H58.7864C58.2413 55.4486 57.8052 55.0061 57.8052 54.4674Z" fill="#ED6C30"/>
<path d="M69.8161 30.8797L71.9516 33.0152C72.3364 33.4 72.3364 34.0221 71.9516 34.4005L69.8161 36.5425C69.6237 36.7285 69.3735 36.8311 69.1234 36.8311C68.8669 36.8311 68.6168 36.7349 68.4308 36.5425L66.2888 34.4005C65.904 34.0157 65.904 33.4 66.2888 33.0152L68.4308 30.8797C68.8156 30.4949 69.4377 30.4949 69.8161 30.8797Z" fill="#40C0E7"/>
<path d="M75.7804 36.9789C75.5945 36.7929 75.4919 36.5492 75.4919 36.2863C75.4919 36.0297 75.5945 35.7796 75.7804 35.5937L77.9224 33.4517C78.288 33.0861 78.9421 33.0861 79.3077 33.4517L81.4433 35.5937C81.6293 35.7796 81.7383 36.0297 81.7383 36.2863C81.7383 36.5492 81.6293 36.7929 81.4433 36.9789L79.3077 39.1145C79.2169 39.2058 79.109 39.2782 78.9901 39.3277C78.8713 39.3771 78.7438 39.4025 78.6151 39.4025C78.4863 39.4025 78.3589 39.3771 78.24 39.3277C78.1211 39.2782 78.0132 39.2058 77.9224 39.1145L75.7804 36.9789Z" fill="#ED6C30"/>
<path d="M64.7882 57.5461C65.1537 57.1741 65.8079 57.1741 66.1798 57.5461L68.3154 59.6816C68.7002 60.0664 68.7002 60.6885 68.3154 61.0733L66.1798 63.2089C66.0891 63.3002 65.9811 63.3726 65.8623 63.4221C65.7434 63.4715 65.6159 63.4969 65.4872 63.4969C65.3585 63.4969 65.231 63.4715 65.1121 63.4221C64.9933 63.3726 64.8853 63.3002 64.7946 63.2089L62.659 61.0733C62.2742 60.6885 62.2742 60.0664 62.659 59.6816L64.7882 57.5461Z" fill="#40C0E7"/>
<path d="M38.3407 69.6731C38.7255 69.2883 39.3476 69.2883 39.7324 69.6731L41.7397 71.6804C42.1245 72.0652 42.1245 72.6873 41.7397 73.0721L39.7324 75.0794C39.6416 75.1707 39.5337 75.2431 39.4148 75.2926C39.296 75.342 39.1685 75.3675 39.0398 75.3675C38.911 75.3675 38.7836 75.342 38.6647 75.2926C38.5458 75.2431 38.4379 75.1707 38.3472 75.0794L36.3398 73.0721C35.955 72.6873 35.955 72.0652 36.3398 71.6804L38.3407 69.6731Z" fill="#40C0E7"/>
<path d="M11.1545 56.2051C11.0638 56.2964 10.9558 56.3688 10.837 56.4183C10.7181 56.4677 10.5906 56.4931 10.4619 56.4931C10.3332 56.4931 10.2057 56.4677 10.0868 56.4183C9.96797 56.3688 9.86005 56.2964 9.76928 56.2051L7.75554 54.1978C7.37717 53.813 7.37717 53.1973 7.75554 52.8125L9.76928 50.8052C10.1541 50.4204 10.7761 50.4204 11.1545 50.8052L13.1618 52.8125C13.5466 53.1973 13.5466 53.813 13.1618 54.1978L11.1545 56.2051Z" fill="#40C0E7"/>
<path d="M17.402 70.0965C17.7803 69.7117 18.4088 69.7117 18.7936 70.0965L20.8009 72.1038C21.1793 72.4886 21.1793 73.1106 20.8009 73.4954L18.7936 75.5028C18.6012 75.6887 18.3447 75.7913 18.0946 75.7913C17.8445 75.7913 17.5943 75.6952 17.402 75.5028L15.3946 73.4954C15.0098 73.1106 15.0098 72.4886 15.3946 72.1038L17.402 70.0965Z" fill="#40C0E7"/>
<path d="M53.8216 65.0236V62.0029C53.8216 61.4642 54.2641 61.0217 54.8028 61.0217H57.8298C58.3749 61.0217 58.811 61.4642 58.811 62.0029V65.0236C58.811 65.5687 58.3749 66.0048 57.8298 66.0048H54.8028C54.2641 66.0048 53.8216 65.5623 53.8216 65.0236Z" fill="#40C0E7"/>
<path d="M35.5637 61.1113H38.4048C38.9435 61.1113 39.386 61.5474 39.386 62.0925V64.9336C39.386 65.4723 38.9435 65.9148 38.4048 65.9148H35.5637C35.025 65.9148 34.5825 65.4723 34.5825 64.9336V62.0925C34.5825 61.5474 35.0186 61.1113 35.5637 61.1113Z" fill="#ED6C30"/>
<path d="M65.3909 68.4675H68.418C68.9567 68.4675 69.3992 68.91 69.3992 69.4487V72.4693C69.3992 73.0081 68.9567 73.4506 68.418 73.4506H65.3909C64.8458 73.4506 64.4097 73.0081 64.4097 72.4693V69.4487C64.4097 68.9036 64.8458 68.4675 65.3909 68.4675Z" fill="#ED6C30"/>
<path d="M74.1322 59.6812C74.5106 59.2964 75.1327 59.2964 75.5175 59.6812L77.6531 61.8232C77.8455 62.0091 77.9417 62.2529 77.9417 62.5158C77.9417 62.7787 77.839 63.0288 77.6531 63.2084L75.5175 65.344C75.4267 65.4353 75.3188 65.5077 75.1999 65.5572C75.0811 65.6066 74.9536 65.6321 74.8248 65.6321C74.6961 65.6321 74.5686 65.6066 74.4498 65.5572C74.3309 65.5077 74.223 65.4353 74.1322 65.344L71.9966 63.2084C71.6118 62.8236 71.6118 62.2015 71.9966 61.8232L74.1322 59.6812Z" fill="#40C0E7"/>
<path d="M78.7432 25.0762C77.5119 25.4418 76.1587 25.166 75.0941 24.8646C74.2476 24.6273 73.4523 24.4349 72.7661 24.6401C72.0863 24.8325 71.7977 25.2173 71.3103 25.9228C70.8037 26.6539 70.1752 27.5646 68.8156 28.0968C68.0717 28.3854 67.3021 28.5394 66.5389 28.5394C66.3081 28.5394 66.0964 28.5265 65.8912 28.5073C65.4102 28.456 65.0319 28.0519 65.0126 27.571L64.9228 25.1853C64.91 24.9223 65.0319 24.6594 65.2178 24.467C65.4038 24.2746 65.686 24.1656 65.9489 24.1656C66.5005 24.1656 67.0199 24.0694 67.533 23.8641C68.3346 23.5499 68.6874 23.0433 69.1299 22.3955C69.6429 21.658 70.2778 20.7473 71.6438 20.3433C72.779 20.0098 73.9975 20.2664 75.0492 20.5614C75.9599 20.8179 76.8193 21.0167 77.6081 20.7794C78.1019 20.6319 78.5187 20.369 78.9741 19.9136C79.1921 19.7084 79.5 19.5994 79.795 19.6443C80.0964 19.6828 80.3593 19.8623 80.5132 20.1253L81.6035 21.9851C81.8151 22.3506 81.7766 22.806 81.4945 23.1266C80.8531 23.8577 80.0515 24.6786 78.7432 25.0762Z" fill="#ED6C30"/>
<path d="M1.27226 69.7819C1.47107 69.66 1.63781 69.6472 1.8238 69.6215C3.84394 69.4099 5.59474 68.7301 6.8902 67.6912C4.05558 66.2931 2.93969 63.5867 3.08719 61.9386C3.08719 61.8744 3.0936 61.7911 3.10643 61.7077C3.31806 59.3284 4.78027 57.7957 6.83249 57.7957C7.33913 57.7957 7.87783 57.8854 8.47426 58.065C9.2246 58.2895 11.3923 58.95 12.5338 63.3623C13.9639 62.349 15.1183 60.7457 15.843 58.7192C15.9071 58.5332 15.9584 58.3793 16.1252 58.2189C16.4907 57.8534 17.1384 57.8534 17.5104 58.2189L19.6332 60.3481C19.9987 60.7136 20.018 61.2908 19.6845 61.6756C19.7807 61.5602 19.8192 61.4768 19.8127 61.5025C18.4147 65.453 15.6442 68.0118 12.1811 68.589C10.7638 71.7058 7.67261 73.7196 3.5297 74.1557C3.46557 74.1685 3.40785 74.1685 3.34372 74.1685C3.01665 74.1685 2.68958 74.0017 2.5036 73.7003L0.93878 71.1415C0.669426 70.6669 0.816927 70.0641 1.27226 69.7819ZM7.57641 63.5547C8.04457 63.8112 8.51274 64.0228 8.91677 64.1768C8.94242 63.7407 8.94242 63.2148 8.87828 62.6761C8.82698 62.0155 8.00609 61.2844 7.30706 61.2844C7.1339 61.2844 6.97999 61.3293 6.84531 61.4191C6.57596 61.5923 6.42204 61.8873 6.43487 62.1951C6.45411 62.6761 6.85814 63.1571 7.57641 63.5547Z" fill="#ED6C30"/>
</svg>
