<svg width="14" height="18" viewBox="0 0 14 18" fill="none" xmlns="http://www.w3.org/2000/svg">
<path d="M7 4.09091V6.54545L10.5 3.27273L7 0V2.45455C3.1325 2.45455 0 5.38364 0 9C0 10.2845 0.4025 11.4791 1.085 12.4855L2.3625 11.2909C1.96875 10.6118 1.75 9.82636 1.75 9C1.75 6.29182 4.10375 4.09091 7 4.09091ZM12.915 5.51455L11.6375 6.70909C12.0225 7.39636 12.25 8.17364 12.25 9C12.25 11.7082 9.89625 13.9091 7 13.9091V11.4545L3.5 14.7273L7 18V15.5455C10.8675 15.5455 14 12.6164 14 9C14 7.71545 13.5975 6.52091 12.915 5.51455Z" fill="white"/>
</svg>
