<svg width="106" height="73" viewBox="0 0 106 73" fill="none" xmlns="http://www.w3.org/2000/svg">
<path d="M106 40.1094C106 46.5439 103.619 52.2768 98.8574 57.308C94.0957 62.3393 87.695 66.2068 79.6553 68.9107C71.6156 71.6146 62.7305 72.9665 53 72.9665C43.2695 72.9665 34.3844 71.6146 26.3447 68.9107C18.305 66.2068 11.9043 62.3393 7.14258 57.308C2.38086 52.2768 0 46.5439 0 40.1094C0 38.2612 0.638346 36.7039 1.91504 35.4375C3.19173 34.1711 4.74447 33.5379 6.57324 33.5379C8.40202 33.5379 9.972 34.1711 11.2832 35.4375C12.5944 36.7039 13.25 38.2612 13.25 40.1094C13.25 43.3266 15.0098 46.4412 18.5293 49.4531C22.0488 52.465 26.9141 54.9464 33.125 56.8973C39.3359 58.8482 45.9609 59.8237 53 59.8237C60.1081 59.8237 66.7503 58.8824 72.9268 57C79.1032 55.1176 83.9512 52.6704 87.4707 49.6585C90.9902 46.6466 92.75 43.4635 92.75 40.1094C92.75 38.2612 93.3883 36.7039 94.665 35.4375C95.9417 34.1711 97.4945 33.5379 99.3232 33.5379C101.152 33.5379 102.722 34.1711 104.033 35.4375C105.344 36.7039 106 38.2612 106 40.1094ZM79.5 32.8571C75.8424 32.8571 72.7197 31.2485 70.1318 28.0312C67.5439 24.814 66.25 20.9464 66.25 16.4286C66.25 11.9107 67.5439 8.04315 70.1318 4.82589C72.7197 1.60863 75.8424 0 79.5 0C83.1576 0 86.2803 1.60863 88.8682 4.82589C91.4561 8.04315 92.75 11.9107 92.75 16.4286C92.75 20.9464 91.4561 24.814 88.8682 28.0312C86.2803 31.2485 83.1576 32.8571 79.5 32.8571ZM26.5 32.8571C22.8424 32.8571 19.7197 31.2485 17.1318 28.0312C14.5439 24.814 13.25 20.9464 13.25 16.4286C13.25 11.9107 14.5439 8.04315 17.1318 4.82589C19.7197 1.60863 22.8424 0 26.5 0C30.1576 0 33.2803 1.60863 35.8682 4.82589C38.4561 8.04315 39.75 11.9107 39.75 16.4286C39.75 20.9464 38.4561 24.814 35.8682 28.0312C33.2803 31.2485 30.1576 32.8571 26.5 32.8571Z" fill="#353C64"/>
</svg>
